HIERARCHY
ROOT hip
{
  OFFSET 0 90.174 2.4664
  CHANNELS 6 Xposition Yposition Zposition Zrotation Xrotation Yrotation
  JOINT abdomen
  {
    OFFSET 0 -1.186 -1.5018
    CHANNELS 6 Xposition Yposition Zposition Zrotation Xrotation Yrotation
    JOINT abdomen2
    {
      OFFSET 0 9.964 0.2134
      CHANNELS 6 Xposition Yposition Zposition Zrotation Xrotation Yrotation
      JOINT chest
      {
        OFFSET 0 13.134 -3.2573
        CHANNELS 6 Xposition Yposition Zposition Zrotation Xrotation Yrotation
        JOINT neck
        {
          OFFSET 0 20.686 -1.6905
          CHANNELS 6 Xposition Yposition Zposition Zrotation Xrotation Yrotation
          JOINT head
          {
            OFFSET 0 7.238 -0.1237
            CHANNELS 6 Xposition Yposition Zposition Zrotation Xrotation Yrotation
            End Site
            {
              OFFSET 0 0 0
            }
          }
        }
        JOINT lCollar
        {
          OFFSET 1.7069 20.075 5.0056
          CHANNELS 6 Xposition Yposition Zposition Zrotation Xrotation Yrotation
          JOINT lShldr
          {
            OFFSET 13.6458 -0.047 -4.849
            CHANNELS 6 Xposition Yposition Zposition Zrotation Xrotation Yrotation
            JOINT lForeArm
            {
              OFFSET 28.3255 -0.9759 2.2888
              CHANNELS 6 Xposition Yposition Zposition Zrotation Xrotation Yrotation
              JOINT lHand
              {
                OFFSET 22.1583 -0.53 10.8316
                CHANNELS 6 Xposition Yposition Zposition Zrotation Xrotation Yrotation
                JOINT lThumb1
                {
                  OFFSET 0.786 0.112 2.5817
                  CHANNELS 6 Xposition Yposition Zposition Zrotation Xrotation Yrotation
                  JOINT lThumb2
                  {
                    OFFSET 0.3601 -0.878 4.2331
                    CHANNELS 6 Xposition Yposition Zposition Zrotation Xrotation Yrotation
                    JOINT lThumb2_End
                    {
                      OFFSET 1.8127 -1.216 2.2227
                      CHANNELS 6 Xposition Yposition Zposition Zrotation Xrotation Yrotation
                      End Site
                      {
                        OFFSET 0.0181 -0.0122 0.0222
                      }
                    }
                  }
                }
                JOINT lCarpal1
                {
                  OFFSET 0.9571 1.114 1.7695
                  CHANNELS 6 Xposition Yposition Zposition Zrotation Xrotation Yrotation
                  JOINT lIndex1
                  {
                    OFFSET 4.1246 0.487 4.1451
                    CHANNELS 6 Xposition Yposition Zposition Zrotation Xrotation Yrotation
                    JOINT lIndex2
                    {
                      OFFSET 3.4052 -1.454 2.7682
                      CHANNELS 6 Xposition Yposition Zposition Zrotation Xrotation Yrotation
                      JOINT lIndex2_End
                      {
                        OFFSET 1.4531 -1.795 1.2713
                        CHANNELS 6 Xposition Yposition Zposition Zrotation Xrotation Yrotation
                        End Site
                        {
                          OFFSET 0.0145 -0.0179 0.0127
                        }
                      }
                    }
                  }
                  JOINT lMid1
                  {
                    OFFSET 5.6954 0.21 2.1184
                    CHANNELS 6 Xposition Yposition Zposition Zrotation Xrotation Yrotation
                    JOINT lMid2
                    {
                      OFFSET 3.9766 -1.54 2.3863
                      CHANNELS 6 Xposition Yposition Zposition Zrotation Xrotation Yrotation
                      JOINT lMid2_End
                      {
                        OFFSET 1.4042 -1.926 1.125
                        CHANNELS 6 Xposition Yposition Zposition Zrotation Xrotation Yrotation
                        End Site
                        {
                          OFFSET 0.014 -0.0193 0.0113
                        }
                      }
                    }
                  }
                }
                JOINT lCarpal2
                {
                  OFFSET 2.0956 0.66 -0.3894
                  CHANNELS 6 Xposition Yposition Zposition Zrotation Xrotation Yrotation
                  JOINT lRing1
                  {
                    OFFSET 5.0395 -0.09 2.4971
                    CHANNELS 6 Xposition Yposition Zposition Zrotation Xrotation Yrotation
                    JOINT lRing2
                    {
                      OFFSET 3.7921 -1.552 1.4806
                      CHANNELS 6 Xposition Yposition Zposition Zrotation Xrotation Yrotation
                      JOINT lRing2_End
                      {
                        OFFSET 1.4655 -1.808 0.9609
                        CHANNELS 6 Xposition Yposition Zposition Zrotation Xrotation Yrotation
                        End Site
                        {
                          OFFSET 0.0147 -0.0181 0.0096
                        }
                      }
                    }
                  }
                  JOINT lPinky1
                  {
                    OFFSET 4.9141 -1.269 0.3591
                    CHANNELS 6 Xposition Yposition Zposition Zrotation Xrotation Yrotation
                    JOINT lPinky2
                    {
                      OFFSET 3.1477 -1.685 0.8462
                      CHANNELS 6 Xposition Yposition Zposition Zrotation Xrotation Yrotation
                      JOINT lPinky2_End
                      {
                        OFFSET 0.8055 -1.585 0.7955
                        CHANNELS 6 Xposition Yposition Zposition Zrotation Xrotation Yrotation
                        End Site
                        {
                          OFFSET 0.0081 -0.0158 0.008
                        }
                      }
                    }
                  }
                }
              }
            }
          }
        }
        JOINT rCollar
        {
          OFFSET -1.7069 20.075 5.0056
          CHANNELS 6 Xposition Yposition Zposition Zrotation Xrotation Yrotation
          JOINT rShldr
          {
            OFFSET -13.6458 -0.047 -4.849
            CHANNELS 6 Xposition Yposition Zposition Zrotation Xrotation Yrotation
            JOINT rForeArm
            {
              OFFSET -28.3255 -0.9759 2.2888
              CHANNELS 6 Xposition Yposition Zposition Zrotation Xrotation Yrotation
              JOINT rHand
              {
                OFFSET -22.1583 -0.53 10.8316
                CHANNELS 6 Xposition Yposition Zposition Zrotation Xrotation Yrotation
                JOINT rThumb1
                {
                  OFFSET -0.786 0.112 2.5817
                  CHANNELS 6 Xposition Yposition Zposition Zrotation Xrotation Yrotation
                  JOINT rThumb2
                  {
                    OFFSET -0.3601 -0.878 4.2331
                    CHANNELS 6 Xposition Yposition Zposition Zrotation Xrotation Yrotation
                    JOINT rThumb2_End
                    {
                      OFFSET -1.8127 -1.216 2.2227
                      CHANNELS 6 Xposition Yposition Zposition Zrotation Xrotation Yrotation
                      End Site
                      {
                        OFFSET -0.0181 -0.0122 0.0222
                      }
                    }
                  }
                }
                JOINT rCarpal1
                {
                  OFFSET -0.9571 1.114 1.7695
                  CHANNELS 6 Xposition Yposition Zposition Zrotation Xrotation Yrotation
                  JOINT rIndex1
                  {
                    OFFSET -4.1246 0.487 4.1451
                    CHANNELS 6 Xposition Yposition Zposition Zrotation Xrotation Yrotation
                    JOINT rIndex2
                    {
                      OFFSET -3.4052 -1.454 2.7682
                      CHANNELS 6 Xposition Yposition Zposition Zrotation Xrotation Yrotation
                      JOINT rIndex2_End
                      {
                        OFFSET -1.4531 -1.795 1.2713
                        CHANNELS 6 Xposition Yposition Zposition Zrotation Xrotation Yrotation
                        End Site
                        {
                          OFFSET -0.0145 -0.018 0.0127
                        }
                      }
                    }
                  }
                  JOINT rMid1
                  {
                    OFFSET -5.6954 0.21 2.1184
                    CHANNELS 6 Xposition Yposition Zposition Zrotation Xrotation Yrotation
                    JOINT rMid2
                    {
                      OFFSET -3.9766 -1.54 2.3863
                      CHANNELS 6 Xposition Yposition Zposition Zrotation Xrotation Yrotation
                      JOINT rMid2_End
                      {
                        OFFSET -1.4042 -1.926 1.125
                        CHANNELS 6 Xposition Yposition Zposition Zrotation Xrotation Yrotation
                        End Site
                        {
                          OFFSET -0.014 -0.0193 0.0113
                        }
                      }
                    }
                  }
                }
                JOINT rCarpal2
                {
                  OFFSET -2.0956 0.66 -0.3894
                  CHANNELS 6 Xposition Yposition Zposition Zrotation Xrotation Yrotation
                  JOINT rRing1
                  {
                    OFFSET -5.0395 -0.09 2.4971
                    CHANNELS 6 Xposition Yposition Zposition Zrotation Xrotation Yrotation
                    JOINT rRing2
                    {
                      OFFSET -3.7921 -1.552 1.4806
                      CHANNELS 6 Xposition Yposition Zposition Zrotation Xrotation Yrotation
                      JOINT rRing2_End
                      {
                        OFFSET -1.4655 -1.808 0.9609
                        CHANNELS 6 Xposition Yposition Zposition Zrotation Xrotation Yrotation
                        End Site
                        {
                          OFFSET -0.0147 -0.0181 0.0096
                        }
                      }
                    }
                  }
                  JOINT rPinky1
                  {
                    OFFSET -4.9141 -1.269 0.3592
                    CHANNELS 6 Xposition Yposition Zposition Zrotation Xrotation Yrotation
                    JOINT rPinky2
                    {
                      OFFSET -3.1477 -1.685 0.8462
                      CHANNELS 6 Xposition Yposition Zposition Zrotation Xrotation Yrotation
                      JOINT rPinky2_End
                      {
                        OFFSET -0.8055 -1.585 0.7955
                        CHANNELS 6 Xposition Yposition Zposition Zrotation Xrotation Yrotation
                        End Site
                        {
                          OFFSET -0.0081 -0.0158 0.008
                        }
                      }
                    }
                  }
                }
              }
            }
          }
        }
      }
    }
  }
  JOINT lThigh
  {
    OFFSET 8.367 -8.2066 0.5982
    CHANNELS 6 Xposition Yposition Zposition Zrotation Xrotation Yrotation
    JOINT lShin
    {
      OFFSET 2.1923 -43.463 -0.4932
      CHANNELS 6 Xposition Yposition Zposition Zrotation Xrotation Yrotation
      JOINT lFoot
      {
        OFFSET 0.7333 -45.8593 -2.6451
        CHANNELS 6 Xposition Yposition Zposition Zrotation Xrotation Yrotation
        End Site
        {
          OFFSET 2.6618 -4.2699 12.3931
        }
      }
    }
  }
  JOINT rThigh
  {
    OFFSET -8.367 -8.2066 0.5982
    CHANNELS 6 Xposition Yposition Zposition Zrotation Xrotation Yrotation
    JOINT rShin
    {
      OFFSET -2.1923 -43.463 -0.4931
      CHANNELS 6 Xposition Yposition Zposition Zrotation Xrotation Yrotation
      JOINT rFoot
      {
        OFFSET -0.7333 -45.8593 -2.6451
        CHANNELS 6 Xposition Yposition Zposition Zrotation Xrotation Yrotation
        End Site
        {
          OFFSET -2.6618 -4.2699 12.3931
        }
      }
    }
  }
}
MOTION
Frames:	4
Frame Time:	0.0333333
-1.45648 -2.90008 -20.9812 -89.9975 76.1254 -0.0050916 0 -1.186 -1.5018 3.10584 2.8486 -1.10985 2.22045e-016 9.964 0.2134 6.27775 5.63218 -2.37714 -6.66134e-016 13.134 -3.2573 6.27776 5.63217 -2.37713 1.00614e-016 20.686 -1.6905 13.0151 3.5684 27.3979 0 7.238 -0.1237 10.6981 -26.696 -3.12768 1.7069 20.075 5.0056 69.8124 20.8282 -50.6939 13.6458 -0.047 -4.849 17.4777 -19.2717 -38.667 28.3255 -0.9759 2.2888 -34.7198 -22.9598 -36.213 22.1583 -0.53 10.8316 -52.039 -37.6077 -84.2564 0.786 0.112 2.5817 1.59028e-015 -1.59028e-015 -6.36111e-015 0.3601 -0.878 4.2331 1.76556e-031 -3.18055e-015 3.18055e-015 1.8127 -1.216 2.2227 1.59028e-015 -1.59028e-015 -0 0.9571 1.114 1.7695 0 0 -6.36111e-015 4.1246 0.487 4.1451 -4.77083e-015 -1.59028e-015 -0 3.4052 -1.454 2.7682 3.18055e-015 -3.18055e-015 -6.36111e-015 1.4531 -1.795 1.2713 1.59028e-015 -3.18055e-015 -6.36111e-015 5.6954 0.21 2.1184 -4.77083e-015 -1.59028e-015 -0 3.9766 -1.54 2.3863 3.18055e-015 -3.18055e-015 -6.36111e-015 1.4042 -1.926 1.125 1.59028e-015 -3.18055e-015 -6.36111e-015 2.0956 0.66 -0.3894 0 0 -6.36111e-015 5.0395 -0.09 2.4971 -4.77083e-015 -1.59028e-015 -0 3.7921 -1.552 1.4806 3.18055e-015 -3.18055e-015 -6.36111e-015 1.4655 -1.808 0.9609 1.59028e-015 -3.18055e-015 -6.36111e-015 4.9141 -1.269 0.3591 -4.77083e-015 -1.59028e-015 -0 3.1477 -1.685 0.8462 3.18055e-015 -3.18055e-015 -6.36111e-015 0.8055 -1.585 0.7955 1.59028e-015 -3.18055e-015 -6.36111e-015 -1.7069 20.075 5.0056 8.46357 -20.3067 27.8078 -13.6458 -0.047 -4.849 75.8052 -4.85821 -2.72027 -28.3255 -0.9759 2.2888 52.2123 -33.352 67.4821 -22.1583 -0.53 10.8316 81.3593 18.6374 -78.6473 -0.786 0.112 2.5817 -2.38542e-015 0 -6.36111e-015 -0.3601 -0.878 4.2331 -3.18055e-015 4.77083e-015 -3.18055e-015 -1.8127 -1.216 2.2227 -7.95139e-016 3.18055e-015 -9.54166e-015 -0.9571 1.114 1.7695 -1.59028e-015 -1.59028e-015 -6.36111e-015 -4.1246 0.487 4.1451 7.95139e-016 0 3.18055e-015 -3.4052 -1.454 2.7682 -1.59028e-015 1.59028e-015 -3.18055e-015 -1.4531 -1.795 1.2713 -7.95139e-016 1.59028e-015 -6.36111e-015 -5.6954 0.21 2.1184 7.95139e-016 0 3.18055e-015 -3.9766 -1.54 2.3863 -1.59028e-015 1.59028e-015 -3.18055e-015 -1.4042 -1.926 1.125 -7.95139e-016 1.59028e-015 -6.36111e-015 -2.0956 0.66 -0.3894 -1.59028e-015 -1.59028e-015 -6.36111e-015 -5.0395 -0.09 2.4971 7.95139e-016 0 3.18055e-015 -3.7921 -1.552 1.4806 -1.59028e-015 1.59028e-015 -3.18055e-015 -1.4655 -1.808 0.9609 -7.95139e-016 1.59028e-015 -6.36111e-015 -4.9141 -1.269 0.3592 7.95139e-016 0 3.18055e-015 -3.1477 -1.685 0.8462 -1.59028e-015 1.59028e-015 -3.18055e-015 -0.8055 -1.585 0.7955 -7.95139e-016 1.59028e-015 -6.36111e-015 8.367 -8.2066 0.5982 -1.25532 -25.8876 -1.20955 2.1923 -43.463 -0.4932 -4.56203 11.8701 2.9916 0.7333 -45.8593 -2.6451 5.82759 20.5064 0.954505 -8.367 -8.2066 0.5982 -2.98848 -17.0266 -1.72684 -2.1923 -43.463 -0.4931 36.4907 47.7998 -34.3006 -0.7333 -45.8593 -2.6451 -3.90018 43.8264 1.0151 
-1.37452 -2.90093 -20.9945 -89.9972 76.5437 -0.00534943 4.44089e-016 -1.186 -1.5018 3.10254 2.67996 -1.10735 -2.22045e-016 9.964 0.2134 6.26647 5.2954 -2.36219 2.498e-016 13.134 -3.2573 6.26647 5.29541 -2.3622 -4.44089e-016 20.686 -1.6905 13.0995 3.57937 27.4634 0 7.238 -0.1237 10.7237 -26.7735 -2.936 1.7069 20.075 5.0056 69.9961 20.9694 -50.9365 13.6458 -0.047 -4.849 17.4943 -19.2976 -38.7772 28.3255 -0.9759 2.2888 -34.8441 -22.7841 -36.5244 22.1583 -0.53 10.8316 -51.8594 -37.8875 -84.2602 0.786 0.112 2.5817 1.76556e-031 -3.18055e-015 3.18055e-015 0.3601 -0.878 4.2331 -3.18055e-015 -6.36111e-015 -0 1.8127 -1.216 2.2227 2.64834e-031 -1.59028e-015 9.54166e-015 0.9571 1.114 1.7695 -0 0 3.18055e-015 4.1246 0.487 4.1451 -6.36111e-015 -4.77083e-015 9.54166e-015 3.4052 -1.454 2.7682 -3.53113e-031 -3.18055e-015 -6.36111e-015 1.4531 -1.795 1.2713 -3.18055e-015 0 -3.18055e-015 5.6954 0.21 2.1184 -6.36111e-015 -4.77083e-015 9.54166e-015 3.9766 -1.54 2.3863 -3.53113e-031 -3.18055e-015 -6.36111e-015 1.4042 -1.926 1.125 -3.18055e-015 0 -3.18055e-015 2.0956 0.66 -0.3894 -0 0 3.18055e-015 5.0395 -0.09 2.4971 -6.36111e-015 -4.77083e-015 9.54166e-015 3.7921 -1.552 1.4806 -3.53113e-031 -3.18055e-015 -6.36111e-015 1.4655 -1.808 0.9609 -3.18055e-015 0 -3.18055e-015 4.9141 -1.269 0.3591 -6.36111e-015 -4.77083e-015 9.54166e-015 3.1477 -1.685 0.8462 -3.53113e-031 -3.18055e-015 -6.36111e-015 0.8055 -1.585 0.7955 -3.18055e-015 0 -3.18055e-015 -1.7069 20.075 5.0056 8.43722 -19.9112 27.5198 -13.6458 -0.047 -4.849 75.9577 -4.84432 -2.80027 -28.3255 -0.9759 2.2888 52.2096 -33.1651 67.6091 -22.1583 -0.53 10.8316 81.4182 18.5589 -78.8407 -0.786 0.112 2.5817 -8.74653e-015 0 9.54166e-015 -0.3601 -0.878 4.2331 -9.54166e-015 -1.59028e-015 3.18055e-015 -1.8127 -1.216 2.2227 -1.03368e-014 0 3.18055e-015 -0.9571 1.114 1.7695 7.95139e-016 1.59028e-015 6.36111e-015 -4.1246 0.487 4.1451 -9.54166e-015 -1.59028e-015 6.36111e-015 -3.4052 -1.454 2.7682 -1.19271e-014 1.59028e-015 -0 -1.4531 -1.795 1.2713 -1.03368e-014 3.18055e-015 9.54166e-015 -5.6954 0.21 2.1184 -9.54166e-015 -1.59028e-015 6.36111e-015 -3.9766 -1.54 2.3863 -1.19271e-014 1.59028e-015 -0 -1.4042 -1.926 1.125 -1.03368e-014 3.18055e-015 9.54166e-015 -2.0956 0.66 -0.3894 7.95139e-016 1.59028e-015 6.36111e-015 -5.0395 -0.09 2.4971 -9.54166e-015 -1.59028e-015 6.36111e-015 -3.7921 -1.552 1.4806 -1.19271e-014 1.59028e-015 -0 -1.4655 -1.808 0.9609 -1.03368e-014 3.18055e-015 9.54166e-015 -4.9141 -1.269 0.3592 -9.54166e-015 -1.59028e-015 6.36111e-015 -3.1477 -1.685 0.8462 -1.19271e-014 1.59028e-015 -0 -0.8055 -1.585 0.7955 -1.03368e-014 3.18055e-015 9.54166e-015 8.367 -8.2066 0.5982 -1.23149 -26.2273 -1.19014 2.1923 -43.463 -0.4932 -4.59169 11.5483 2.99947 0.7333 -45.8593 -2.6451 5.86664 20.8087 0.890383 -8.367 -8.2066 0.5982 -3.20415 -17.4943 -2.15359 -2.1923 -43.463 -0.4931 36.4859 47.797 -34.3025 -0.7333 -45.8593 -2.6451 -4.40757 43.9156 1.47448 
-1.29254 -2.90192 -21.0082 -89.997 76.9619 -0.00559002 -4.44089e-016 -1.186 -1.5018 3.09897 2.51145 -1.10474 -4.44089e-016 9.964 0.2134 6.25478 4.95893 -2.34717 -3.88578e-016 13.134 -3.2573 6.25475 4.95895 -2.34718 -8.8124e-016 20.686 -1.6905 13.1841 3.5907 27.5289 -1.77636e-015 7.238 -0.1237 10.7496 -26.8508 -2.74421 1.7069 20.075 5.0056 70.1806 21.1099 -51.1799 13.6458 -0.047 -4.849 17.5109 -19.3236 -38.8873 28.3255 -0.9759 2.2888 -34.9673 -22.6079 -36.8349 22.1583 -0.53 10.8316 -51.679 -38.1674 -84.2628 0.786 0.112 2.5817 6.85637e-007 2.40743e-006 2.01224e-006 0.3601 -0.878 4.2331 -3.18055e-015 -1.59028e-015 -0 1.8127 -1.216 2.2227 6.85637e-007 2.40743e-006 2.01224e-006 0.9571 1.114 1.7695 1.59028e-015 -1.59028e-015 -3.18055e-015 4.1246 0.487 4.1451 6.85637e-007 2.40743e-006 2.01224e-006 3.4052 -1.454 2.7682 -1.59028e-015 3.18055e-015 6.36111e-015 1.4531 -1.795 1.2713 6.85637e-007 2.40743e-006 2.01224e-006 5.6954 0.21 2.1184 6.85637e-007 2.40743e-006 2.01224e-006 3.9766 -1.54 2.3863 -1.59028e-015 3.18055e-015 6.36111e-015 1.4042 -1.926 1.125 6.85637e-007 2.40743e-006 2.01224e-006 2.0956 0.66 -0.3894 1.59028e-015 -1.59028e-015 -3.18055e-015 5.0395 -0.09 2.4971 6.85637e-007 2.40743e-006 2.01224e-006 3.7921 -1.552 1.4806 -1.59028e-015 3.18055e-015 6.36111e-015 1.4655 -1.808 0.9609 6.85637e-007 2.40743e-006 2.01224e-006 4.9141 -1.269 0.3591 6.85637e-007 2.40743e-006 2.01224e-006 3.1477 -1.685 0.8462 -1.59028e-015 3.18055e-015 6.36111e-015 0.8055 -1.585 0.7955 6.85637e-007 2.40743e-006 2.01224e-006 -1.7069 20.075 5.0056 8.41305 -19.5156 27.2327 -13.6458 -0.047 -4.849 76.1103 -4.83064 -2.8803 -28.3255 -0.9759 2.2888 52.2064 -32.9782 67.7358 -22.1583 -0.53 10.8316 81.4768 18.4802 -79.034 -0.786 0.112 2.5817 -1.59028e-015 0 -3.18055e-015 -0.3601 -0.878 4.2331 0 1.59028e-015 -0 -1.8127 -1.216 2.2227 -2.38542e-015 1.59028e-015 -3.18055e-015 -0.9571 1.114 1.7695 -7.95139e-016 0 -0 -4.1246 0.487 4.1451 2.38542e-015 3.18055e-015 1.59028e-014 -3.4052 -1.454 2.7682 0 0 -0 -1.4531 -1.795 1.2713 -1.59028e-015 0 -3.18055e-015 -5.6954 0.21 2.1184 2.38542e-015 3.18055e-015 1.59028e-014 -3.9766 -1.54 2.3863 0 0 -0 -1.4042 -1.926 1.125 -1.59028e-015 0 -3.18055e-015 -2.0956 0.66 -0.3894 -7.95139e-016 0 -0 -5.0395 -0.09 2.4971 2.38542e-015 3.18055e-015 1.59028e-014 -3.7921 -1.552 1.4806 0 0 -0 -1.4655 -1.808 0.9609 -1.59028e-015 0 -3.18055e-015 -4.9141 -1.269 0.3592 2.38542e-015 3.18055e-015 1.59028e-014 -3.1477 -1.685 0.8462 0 0 -0 -0.8055 -1.585 0.7955 -1.59028e-015 0 -3.18055e-015 8.367 -8.2066 0.5982 -1.20756 -26.5668 -1.17051 2.1923 -43.463 -0.4932 -4.62121 11.2264 3.00719 0.7333 -45.8593 -2.6451 5.90627 21.1111 0.825879 -8.367 -8.2066 0.5982 -3.42377 -17.9601 -2.58311 -2.1923 -43.463 -0.4931 36.4806 47.7939 -34.304 -0.7333 -45.8593 -2.6451 -4.91652 44.0019 1.93545 
-1.21056 -2.90306 -21.0222 -89.9967 77.3802 -0.00583211 -4.44089e-016 -1.186 -1.5018 3.09522 2.34317 -1.10203 -2.22045e-016 9.964 0.2134 6.24261 4.62285 -2.33206 -2.77556e-017 13.134 -3.2573 6.24263 4.62287 -2.33207 9.02056e-016 20.686 -1.6905 13.2685 3.60238 27.5944 0 7.238 -0.1237 10.7758 -26.928 -2.55236 1.7069 20.075 5.0056 70.3659 21.2496 -51.4239 13.6458 -0.047 -4.849 17.5274 -19.3496 -38.9974 28.3255 -0.9759 2.2888 -35.0892 -22.431 -37.1447 22.1583 -0.53 10.8316 -51.498 -38.4473 -84.2643 0.786 0.112 2.5817 -1.59028e-015 0 3.18055e-015 0.3601 -0.878 4.2331 -1.59028e-015 0 3.18055e-015 1.8127 -1.216 2.2227 -1.59028e-015 0 3.18055e-015 0.9571 1.114 1.7695 8.82781e-032 -1.59028e-015 3.18055e-015 4.1246 0.487 4.1451 -4.77083e-015 -9.54166e-015 6.36111e-015 3.4052 -1.454 2.7682 0 0 -0 1.4531 -1.795 1.2713 0 0 -0 5.6954 0.21 2.1184 -4.77083e-015 -9.54166e-015 6.36111e-015 3.9766 -1.54 2.3863 0 0 -0 1.4042 -1.926 1.125 0 0 -0 2.0956 0.66 -0.3894 8.82781e-032 -1.59028e-015 3.18055e-015 5.0395 -0.09 2.4971 -4.77083e-015 -9.54166e-015 6.36111e-015 3.7921 -1.552 1.4806 0 0 -0 1.4655 -1.808 0.9609 0 0 -0 4.9141 -1.269 0.3591 -4.77083e-015 -9.54166e-015 6.36111e-015 3.1477 -1.685 0.8462 0 0 -0 0.8055 -1.585 0.7955 0 0 -0 -1.7069 20.075 5.0056 8.39102 -19.12 26.9465 -13.6458 -0.047 -4.849 76.2629 -4.81718 -2.96039 -28.3255 -0.9759 2.2888 52.2028 -32.7912 67.8623 -22.1583 -0.53 10.8316 81.5352 18.4013 -79.227 -0.786 0.112 2.5817 4.56848e-007 -4.32279e-007 -1.15817e-006 -0.3601 -0.878 4.2331 -7.95139e-016 1.59028e-015 -0 -1.8127 -1.216 2.2227 7.95139e-016 1.59028e-015 3.18055e-015 -0.9571 1.114 1.7695 3.53113e-031 3.18055e-015 -6.36111e-015 -4.1246 0.487 4.1451 4.56848e-007 -4.32279e-007 -1.15817e-006 -3.4052 -1.454 2.7682 1.59028e-015 -1.59028e-015 3.18055e-015 -1.4531 -1.795 1.2713 1.59028e-015 -1.59028e-015 3.18055e-015 -5.6954 0.21 2.1184 4.56848e-007 -4.32279e-007 -1.15817e-006 -3.9766 -1.54 2.3863 1.59028e-015 -1.59028e-015 3.18055e-015 -1.4042 -1.926 1.125 1.59028e-015 -1.59028e-015 3.18055e-015 -2.0956 0.66 -0.3894 3.53113e-031 3.18055e-015 -6.36111e-015 -5.0395 -0.09 2.4971 4.56848e-007 -4.32279e-007 -1.15817e-006 -3.7921 -1.552 1.4806 1.59028e-015 -1.59028e-015 3.18055e-015 -1.4655 -1.808 0.9609 1.59028e-015 -1.59028e-015 3.18055e-015 -4.9141 -1.269 0.3592 4.56848e-007 -4.32279e-007 -1.15817e-006 -3.1477 -1.685 0.8462 1.59028e-015 -1.59028e-015 3.18055e-015 -0.8055 -1.585 0.7955 1.59028e-015 -1.59028e-015 3.18055e-015 8.367 -8.2066 0.5982 -1.18355 -26.9067 -1.15072 2.1923 -43.463 -0.4932 -4.65067 10.9051 3.01485 0.7333 -45.8593 -2.6451 5.9466 21.4131 0.760951 -8.367 -8.2066 0.5982 -3.64727 -18.4239 -3.01541 -2.1923 -43.463 -0.4931 36.4745 47.7903 -34.3048 -0.7333 -45.8593 -2.6451 -5.42707 44.0856 2.39804 
